<?xml version="1.0" encoding="utf-8"?>
<!-- Generator: Adobe Illustrator 24.1.0, SVG Export Plug-In . SVG Version: 6.00 Build 0)  -->
<svg version="1.1" id="Layer_1" xmlns="http://www.w3.org/2000/svg" xmlns:xlink="http://www.w3.org/1999/xlink" x="0px" y="0px"
	 viewBox="0 0 174 174" style="enable-background:new 0 0 174 174;" xml:space="preserve">
<style type="text/css">
	.st0{clip-path:url(#SVGID_2_);fill:#001428;}
	.st1{clip-path:url(#SVGID_2_);fill:#009CB4;}
	.st2{clip-path:url(#SVGID_2_);fill:#E8663D;}
	.st3{clip-path:url(#SVGID_2_);fill:#008C73;}
	.st4{fill:#E8663D;}
	.st5{fill:#FFFFFF;}
	.st6{fill:#001428;}
</style>
<g>
	<polygon style="fill:#8266AB;" points="42.2,98.66 42.2,98.66 87.97,83.02 88.16,114.08 88.16,174.31 	"/>
	<polyline style="fill:#7357A3;" points="88.16,174.31 87.97,83.02 133.9,98.55 	"/>
	<polygon style="fill:#6D54A2;" points="133.9,98.54 88.06,124.89 88.04,124.89 42.2,98.66 88.04,72.19 	"/>
	<polygon style="opacity:0.39;fill:#8266AB;" points="121.96,91.62 88.17,111.04 88.15,111.04 54.38,91.63 88.15,72.19 	"/>
	<polygon style="fill:#8AD4E9;" points="133.9,26.66 88.06,53.01 88.04,53.01 42.2,26.66 88.04,0.31 	"/>
	<polygon style="fill:#5AC6D4;" points="133.9,26.66 133.9,79.36 88.04,105.73 88.04,53.01 88.06,53.01 	"/>
	<polygon style="fill:#A0DAE8;" points="88.04,53.01 88.04,105.73 42.2,79.36 42.2,26.66 	"/>
	<g>
		<polygon style="opacity:0.5;fill:#5AC6D4;" points="58.69,55.12 58.69,69.88 71.55,77.27 71.55,62.5 71.54,62.5 		"/>
		<polyline style="opacity:0.5;fill:#5AC6D4;" points="71.6,62.5 71.6,62.5 58.75,55.12 58.75,69.88 		"/>
	</g>
	<polygon style="fill:#8AD4E9;" points="119.35,55.12 119.35,69.88 106.5,77.27 106.5,62.5 106.51,62.5 	"/>
	<polyline style="opacity:0.5;fill:#25A9E0;" points="106.5,62.5 106.51,62.5 119.35,55.12 119.35,69.88 	"/>
</g>
</svg>
